<svg
  style="fill: rgba(54, 64, 245, 1)"
  viewBox="0 0 178 40"
  xmlns="http://www.w3.org/2000/svg"
>
  <title>Onfido</title>
  <g>
    <path
      d="M27.0937 20.001C27.0937 23.9176 23.9187 27.0926 20.0021 27.0926C16.0855 27.0926 12.9105 23.9176 12.9105 20.001C12.9105 16.0844 16.0855 12.9094 20.0021 12.9094C23.9187 12.9094 27.0937 16.0844 27.0937 20.001ZM9.58945 34.6894C9.97602 34.4228 10.3626 34.1562 10.7758 33.9163C17.0008 30.184 24.5054 30.4372 30.3039 33.9429C30.5305 34.0762 30.5305 34.3962 30.3172 34.5428C30.2609 34.579 30.2043 34.6155 30.1475 34.6521C29.8274 34.8585 29.4991 35.0702 29.1709 35.2626C27.0514 36.5289 24.7854 37.6086 22.426 38.4484C20.8398 39.0216 19.1869 39.4881 17.4673 39.8747C15.8544 40.2346 14.1616 39.808 12.9086 38.7416C11.6956 37.7019 10.5625 36.6089 9.50947 35.4892C9.28287 35.2493 9.32286 34.876 9.58945 34.6894Z"
    />
    <path
      opacity="0.5"
      d="M29.2242 6.08374C29.6374 5.84381 30.024 5.57721 30.4105 5.31062C30.6771 5.124 30.7171 4.75077 30.4905 4.51083C29.4375 3.39113 28.3044 2.29809 27.0914 1.25837C25.8384 0.19199 24.1456 -0.234562 22.5327 0.125341C20.8131 0.511904 19.1602 0.978446 17.574 1.55162C15.2146 2.3914 12.9486 3.47111 10.8291 4.73744C10.5009 4.92986 10.1726 5.1415 9.85256 5.34788L9.68277 5.45724C9.4695 5.60387 9.4695 5.92378 9.6961 6.05708C15.4945 9.56281 22.9992 9.81607 29.2242 6.08374ZM6.08374 10.7758C5.84381 10.3626 5.57721 9.97603 5.31062 9.58946C5.124 9.32287 4.75077 9.28288 4.51083 9.50948C3.39113 10.5625 2.29809 11.6956 1.25837 12.9086C0.19199 14.1616 -0.234562 15.8544 0.125341 17.4673C0.511904 19.1869 0.978446 20.8398 1.55163 22.426C2.3914 24.7854 3.47111 27.0514 4.73744 29.1709C4.92986 29.4991 5.1415 29.8274 5.34788 30.1474L5.45724 30.3172C5.60387 30.5305 5.92378 30.5305 6.05708 30.3039C9.56281 24.5055 9.81607 17.0008 6.08374 10.7758ZM34.6894 30.4105C34.4228 30.024 34.1562 29.6374 33.9163 29.2242C30.1839 22.9992 30.4372 15.4945 33.9429 9.6961C34.0762 9.4695 34.3961 9.4695 34.5428 9.68277C34.5789 9.73903 34.6154 9.79558 34.652 9.8524C34.8584 10.1725 35.0701 10.5008 35.2626 10.8291C36.5289 12.9486 37.6086 15.2146 38.4484 17.574C39.0215 19.1602 39.4881 20.8131 39.8746 22.5327C40.2346 24.1456 39.808 25.8384 38.7416 27.0914C37.7019 28.3044 36.6089 29.4375 35.4892 30.4905C35.2492 30.7171 34.876 30.6771 34.6894 30.4105Z"
    />
  </g>

  <g transform="translate(56)">
    <path
      d="M65.7551 0.815633C66.2993 0.271878 66.966 0 67.7279 0C68.4898 0 69.1565 0.285472 69.7007 0.815633C70.2449 1.35939 70.517 2.02549 70.517 2.78675C70.517 3.5616 70.2449 4.2141 69.7007 4.75786C69.1565 5.30161 68.4898 5.57349 67.7279 5.57349C66.9524 5.57349 66.2993 5.30161 65.7551 4.75786C65.2109 4.2141 64.9388 3.548 64.9388 2.78675C64.9388 2.01189 65.2109 1.35939 65.7551 0.815633ZM69.5646 9.7876H65.9048V31.4019H69.5646V9.7876ZM84.1905 9.18946C87.2381 9.18946 90.136 10.5081 92.2177 12.819V1.01954H95.8775V31.4019H92.2177V28.3704C90.136 30.6814 87.2381 32 84.1905 32C78.136 32 73.2109 26.8751 73.2109 20.5947C73.2109 14.3144 78.136 9.18946 84.1905 9.18946ZM84.4218 28.5471C88.6531 28.5471 92.1088 24.9856 92.1088 20.5947C92.1088 16.2039 88.6531 12.6423 84.4218 12.6423C80.1905 12.6423 76.7347 16.2039 76.7347 20.5947C76.7347 24.9856 80.1769 28.5471 84.4218 28.5471ZM99.1701 20.5947C99.1701 14.3144 104.286 9.18946 110.585 9.18946C116.884 9.18946 122 14.3144 122 20.5947C122 26.8751 116.871 32 110.585 32C104.299 32 99.1701 26.8751 99.1701 20.5947ZM110.585 28.5471C114.816 28.5471 118.272 24.9855 118.272 20.5947C118.272 16.2039 114.83 12.6423 110.585 12.6423C106.354 12.6423 102.898 16.2039 102.898 20.5947C102.898 24.9855 106.34 28.5471 110.585 28.5471ZM55.483 5.51911V9.78759H61.6735V13.1725H55.483V31.4155H51.8231V13.1861H47.7687V9.80119H51.8231V5.45114C51.8231 2.59643 54.1497 0.271873 57.0068 0.271873H61.6735V3.60237H57.4014C56.3401 3.60237 55.483 4.45879 55.483 5.51911ZM36.966 9.18946C33.7687 9.18946 31.3742 10.4809 29.9864 12.9142V9.78759H26.3265V31.4019H29.9864V20.1597C29.9864 17.8895 30.5578 16.0544 31.6871 14.695C32.8163 13.3492 34.381 12.6695 36.3674 12.6695C38.0272 12.6695 39.3742 13.2133 40.3401 14.2872C41.3061 15.3747 41.8095 17.0331 41.8095 19.2082V31.3883H45.4694V18.5149C45.4694 15.4291 44.7211 13.0637 43.2381 11.514C41.7959 10.0187 39.5646 9.18946 36.966 9.18946ZM0 20.5947C0 14.3144 5.11565 9.18946 11.415 9.18946C17.7143 9.18946 22.8299 14.3144 22.8299 20.5947C22.8299 26.8751 17.7143 32 11.415 32C5.12925 32 0 26.8751 0 20.5947ZM11.4286 28.5471C15.6599 28.5471 19.1156 24.9855 19.1156 20.5947C19.1156 16.2039 15.6599 12.6423 11.4286 12.6423C7.19728 12.6423 3.7415 16.2039 3.7415 20.5947C3.7415 24.9855 7.18367 28.5471 11.4286 28.5471Z"
    />
  </g>
</svg>
