<svg viewBox="0 0 40 40" xmlns="http://www.w3.org/2000/svg">
  <title>Onfido</title>
  <style>
    path {
      fill: rgba(54, 64, 245, 1);
    }

    @media (prefers-color-scheme: dark) {
      path {
        fill: rgba(247, 249, 250, 1);
      }
    }
  </style>

  <path
    d="M27.0937 20.001C27.0937 23.9176 23.9187 27.0926 20.0021 27.0926C16.0855 27.0926 12.9105 23.9176 12.9105 20.001C12.9105 16.0844 16.0855 12.9094 20.0021 12.9094C23.9187 12.9094 27.0937 16.0844 27.0937 20.001ZM9.58945 34.6894C9.97602 34.4228 10.3626 34.1562 10.7758 33.9163C17.0008 30.184 24.5054 30.4372 30.3039 33.9429C30.5305 34.0762 30.5305 34.3962 30.3172 34.5428C30.2609 34.579 30.2043 34.6155 30.1475 34.6521C29.8274 34.8585 29.4991 35.0702 29.1709 35.2626C27.0514 36.5289 24.7854 37.6086 22.426 38.4484C20.8398 39.0216 19.1869 39.4881 17.4673 39.8747C15.8544 40.2346 14.1616 39.808 12.9086 38.7416C11.6956 37.7019 10.5625 36.6089 9.50947 35.4892C9.28287 35.2493 9.32286 34.876 9.58945 34.6894Z"
  />
  <path
    opacity="0.5"
    d="M29.2242 6.08374C29.6374 5.84381 30.024 5.57721 30.4105 5.31062C30.6771 5.124 30.7171 4.75077 30.4905 4.51083C29.4375 3.39113 28.3044 2.29809 27.0914 1.25837C25.8384 0.19199 24.1456 -0.234562 22.5327 0.125341C20.8131 0.511904 19.1602 0.978446 17.574 1.55162C15.2146 2.3914 12.9486 3.47111 10.8291 4.73744C10.5009 4.92986 10.1726 5.1415 9.85256 5.34788L9.68277 5.45724C9.4695 5.60387 9.4695 5.92378 9.6961 6.05708C15.4945 9.56281 22.9992 9.81607 29.2242 6.08374ZM6.08374 10.7758C5.84381 10.3626 5.57721 9.97603 5.31062 9.58946C5.124 9.32287 4.75077 9.28288 4.51083 9.50948C3.39113 10.5625 2.29809 11.6956 1.25837 12.9086C0.19199 14.1616 -0.234562 15.8544 0.125341 17.4673C0.511904 19.1869 0.978446 20.8398 1.55163 22.426C2.3914 24.7854 3.47111 27.0514 4.73744 29.1709C4.92986 29.4991 5.1415 29.8274 5.34788 30.1474L5.45724 30.3172C5.60387 30.5305 5.92378 30.5305 6.05708 30.3039C9.56281 24.5055 9.81607 17.0008 6.08374 10.7758ZM34.6894 30.4105C34.4228 30.024 34.1562 29.6374 33.9163 29.2242C30.1839 22.9992 30.4372 15.4945 33.9429 9.6961C34.0762 9.4695 34.3961 9.4695 34.5428 9.68277C34.5789 9.73903 34.6154 9.79558 34.652 9.8524C34.8584 10.1725 35.0701 10.5008 35.2626 10.8291C36.5289 12.9486 37.6086 15.2146 38.4484 17.574C39.0215 19.1602 39.4881 20.8131 39.8746 22.5327C40.2346 24.1456 39.808 25.8384 38.7416 27.0914C37.7019 28.3044 36.6089 29.4375 35.4892 30.4905C35.2492 30.7171 34.876 30.6771 34.6894 30.4105Z"
  />
</svg>
